<svg width="100" height="100" viewBox="0 0 100 100" fill="none" xmlns="http://www.w3.org/2000/svg">
    <path d="M50 6.25C25.84 6.25 6.25 25.84 6.25 50S25.84 93.75 50 93.75 93.75 74.16 93.75 50 74.16 6.25 50 6.25zm0 80.078c-20.059 0-36.328-16.27-36.328-36.328 0-20.059 16.27-36.328 36.328-36.328 20.059 0 36.328 16.27 36.328 36.328 0 20.059-16.27 36.328-36.328 36.328z" fill="#1087F4"/>
    <path d="M50 13.672c-20.059 0-36.328 16.27-36.328 36.328 0 20.059 16.27 36.328 36.328 36.328 20.059 0 36.328-16.27 36.328-36.328 0-20.059-16.27-36.328-36.328-36.328zm18.887 22.04L48.32 64.229a3.106 3.106 0 0 1-5.048 0L31.104 47.355a.784.784 0 0 1 .634-1.24h4.58c1.006 0 1.944.488 2.53 1.298L45.8 57.06l15.351-21.288a3.11 3.11 0 0 1 2.53-1.3h4.58a.778.778 0 0 1 .625 1.24z" fill="#fff" fill-opacity=".15"/>
    <path d="M68.261 34.473h-4.58a3.11 3.11 0 0 0-2.529 1.299L45.801 57.06l-6.954-9.648a3.123 3.123 0 0 0-2.529-1.299h-4.58a.784.784 0 0 0-.635 1.24l12.168 16.875a3.105 3.105 0 0 0 5.05 0l20.566-28.515a.778.778 0 0 0-.626-1.24z" fill="#1087F4"/>
</svg>
