<svg width="60" height="19" viewBox="0 0 60 19" fill="none" xmlns="http://www.w3.org/2000/svg">
    <path d="M11.662 11.73c0 .54-.02 1.012-.059 1.418a9.109 9.109 0 0 1-.14 1.09c-.188.86-.555 1.598-1.102 2.215-1.031 1.188-2.45 1.781-4.254 1.781-1.523 0-2.777-.41-3.762-1.23C1.33 16.16.744 14.992.588 13.5h2.648c.101.563.27.996.504 1.3.547.712 1.344 1.067 2.39 1.067 1.93 0 2.895-1.183 2.895-3.55v-1.594c-1.047 1.07-2.254 1.605-3.621 1.605-1.555 0-2.828-.562-3.82-1.687-1-1.141-1.5-2.567-1.5-4.278 0-1.664.464-3.078 1.394-4.242C2.478.887 3.798.27 5.44.27c1.438 0 2.633.535 3.586 1.605V.585h2.637V11.73zM9.13 6.316c0-1.109-.296-1.996-.89-2.66-.602-.68-1.371-1.02-2.309-1.02-1 0-1.789.372-2.367 1.114-.523.664-.785 1.523-.785 2.578 0 1.04.262 1.89.785 2.555.57.726 1.36 1.09 2.367 1.09 1.008 0 1.805-.368 2.39-1.102.54-.664.81-1.516.81-2.555zm4.12-.105c0-1.649.59-3.05 1.77-4.207C16.2.848 17.637.27 19.333.27c1.703 0 3.148.582 4.336 1.746 1.172 1.164 1.758 2.593 1.758 4.289 0 1.71-.59 3.144-1.77 4.3-1.188 1.149-2.645 1.723-4.371 1.723-1.711 0-3.145-.586-4.3-1.758-1.157-1.156-1.735-2.61-1.735-4.36zm2.696.047c0 1.14.305 2.043.914 2.707.625.672 1.45 1.008 2.473 1.008 1.031 0 1.855-.332 2.473-.996.617-.665.925-1.551.925-2.66 0-1.11-.308-1.997-.926-2.66-.625-.673-1.449-1.009-2.472-1.009-1.008 0-1.824.336-2.45 1.008-.624.672-.937 1.54-.937 2.602zM27.953.586l2.953 6.41 2.942-6.41h2.965l-5.93 12.2L25 .585h2.953zm19.425 6.328h-8.18c.07.938.375 1.684.914 2.238.54.547 1.231.82 2.075.82.656 0 1.199-.156 1.629-.468.421-.313.902-.89 1.441-1.734l2.227 1.242a9.077 9.077 0 0 1-1.09 1.511 6.04 6.04 0 0 1-1.23 1.032c-.438.265-.91.46-1.419.586a6.903 6.903 0 0 1-1.652.187c-1.703 0-3.07-.547-4.102-1.64-1.03-1.102-1.547-2.563-1.547-4.383 0-1.805.5-3.266 1.5-4.383C38.953.82 40.288.27 41.953.27c1.68 0 3.008.535 3.985 1.605.969 1.063 1.453 2.535 1.453 4.418l-.012.621zm-2.707-2.156c-.367-1.406-1.254-2.11-2.66-2.11-.32 0-.621.051-.902.153-.282.094-.54.234-.774.422-.226.18-.422.398-.586.656a3.08 3.08 0 0 0-.375.879h5.297zm7.577 5.12L47.116.587h3.058l3.492 6.562L56.924.586h2.977L50.807 18.21h-3.012l4.453-8.332z" fill="#1087F4"/>
</svg>
